<svg xmlns="http://www.w3.org/2000/svg" width="266.895" height="266.895" viewBox="0 0 266.895 266.895"><path d="M252.164 0h-237.434c-8.136 0-14.73 6.594-14.73 14.731v237.434c0 8.135 6.594 14.73 14.73 14.73h127.826v-103.356h-34.781v-40.28h34.781v-29.705c0-34.473 21.055-53.244 51.807-53.244 14.73 0 27.391 1.097 31.08 1.587v36.026l-21.328.01c-16.725 0-19.963 7.947-19.963 19.609v25.717h39.887l-5.193 40.28h-34.693v103.355h68.012c8.135 0 14.73-6.596 14.73-14.73v-237.433c0-8.137-6.596-14.731-14.731-14.731z"/></svg>